REM DIRINDEX 1\2\4,1\2\5,1\2\6,1\3\7,1\3\8,1\3\9,1\3\10
REM DIRNAME cjc058,folder01,folder02,folder03,folder04,folder05,folder06,folder07,folder08,folder09
TITLE ""
FILE "a_46.mp3" MP3
  TRACK 01 AUDIO
    TITLE "0:"
    INDEX 01 00:00:00
  TRACK 02 AUDIO
    TITLE "6:cjc058_1167"
    INDEX 01 00:00:11
  TRACK 03 AUDIO
    TITLE "0:"
    INDEX 01 00:02:47
  TRACK 04 AUDIO
    TITLE "4:cjc058_1168"
    INDEX 01 00:03:19
  TRACK 05 AUDIO
    TITLE "0:"
    INDEX 01 00:04:42
  TRACK 06 AUDIO
    TITLE "5:cjc058_1169"
    INDEX 01 00:05:03
  TRACK 07 AUDIO
    TITLE "0:"
    INDEX 01 00:07:15
  TRACK 08 AUDIO
    TITLE "4:cjc058_1170"
    INDEX 01 00:08:23
  TRACK 09 AUDIO
    TITLE "0:"
    INDEX 01 00:09:63
  TRACK 10 AUDIO
    TITLE "5:cjc058_1171"
    INDEX 01 00:10:21
  TRACK 11 AUDIO
    TITLE "0:"
    INDEX 01 00:13:45
  TRACK 12 AUDIO
    TITLE "4:cjc058_1172"
    INDEX 01 00:14:51
  TRACK 13 AUDIO
    TITLE "0:"
    INDEX 01 00:16:26
  TRACK 14 AUDIO
    TITLE "5:cjc058_1173"
    INDEX 01 00:16:59
  TRACK 15 AUDIO
    TITLE "0:"
    INDEX 01 00:20:16
  TRACK 16 AUDIO
    TITLE "4:cjc058_1174"
    INDEX 01 00:21:19
  TRACK 17 AUDIO
    TITLE "0:"
    INDEX 01 00:22:66
  TRACK 18 AUDIO
    TITLE "5:cjc058_1175"
    INDEX 01 00:23:24
  TRACK 19 AUDIO
    TITLE "0:"
    INDEX 01 00:26:30
  TRACK 20 AUDIO
    TITLE "4:cjc058_1176"
    INDEX 01 00:27:38
  TRACK 21 AUDIO
    TITLE "0:"
    INDEX 01 00:29:11
  TRACK 22 AUDIO
    TITLE "5:cjc058_1177"
    INDEX 01 00:29:44
  TRACK 23 AUDIO
    TITLE "0:"
    INDEX 01 00:31:18
  TRACK 24 AUDIO
    TITLE "4:cjc058_1178"
    INDEX 01 00:32:29
  TRACK 25 AUDIO
    TITLE "0:"
    INDEX 01 00:33:69
  TRACK 26 AUDIO
    TITLE "5:cjc058_1179"
    INDEX 01 00:34:28
  TRACK 27 AUDIO
    TITLE "0:"
    INDEX 01 00:37:20
  TRACK 28 AUDIO
    TITLE "4:cjc058_1180"
    INDEX 01 00:38:31
  TRACK 29 AUDIO
    TITLE "0:"
    INDEX 01 00:39:47
  TRACK 30 AUDIO
    TITLE "5:cjc058_1181"
    INDEX 01 00:40:07
  TRACK 31 AUDIO
    TITLE "0:"
    INDEX 01 00:42:23
  TRACK 32 AUDIO
    TITLE "4:cjc058_1182"
    INDEX 01 00:43:31
  TRACK 33 AUDIO
    TITLE "0:"
    INDEX 01 00:44:71
  TRACK 34 AUDIO
    TITLE "5:cjc058_1183"
    INDEX 01 00:45:28
  TRACK 35 AUDIO
    TITLE "0:"
    INDEX 01 00:47:17
  TRACK 36 AUDIO
    TITLE "4:cjc058_1184"
    INDEX 01 00:48:22
  TRACK 37 AUDIO
    TITLE "0:"
    INDEX 01 00:49:69
  TRACK 38 AUDIO
    TITLE "5:cjc058_1185"
    INDEX 01 00:50:27
  TRACK 39 AUDIO
    TITLE "0:"
    INDEX 01 00:52:37
  TRACK 40 AUDIO
    TITLE "4:cjc058_1186"
    INDEX 01 00:53:47
  TRACK 41 AUDIO
    TITLE "0:"
    INDEX 01 00:55:06
  TRACK 42 AUDIO
    TITLE "5:cjc058_1187"
    INDEX 01 00:55:40
  TRACK 43 AUDIO
    TITLE "0:"
    INDEX 01 00:58:38
  TRACK 44 AUDIO
    TITLE "4:cjc058_1188"
    INDEX 01 00:59:45
  TRACK 45 AUDIO
    TITLE "0:"
    INDEX 01 01:00:72
  TRACK 46 AUDIO
    TITLE "5:cjc058_1189"
    INDEX 01 01:01:27
  TRACK 47 AUDIO
    TITLE "0:"
    INDEX 01 01:04:05
  TRACK 48 AUDIO
    TITLE "4:cjc058_1190"
    INDEX 01 01:05:13
  TRACK 49 AUDIO
    TITLE "0:"
    INDEX 01 01:06:63
  TRACK 50 AUDIO
    TITLE "5:cjc058_1191"
    INDEX 01 01:07:17
  TRACK 51 AUDIO
    TITLE "0:"
    INDEX 01 01:10:14
  TRACK 52 AUDIO
    TITLE "4:cjc058_1192"
    INDEX 01 01:11:19
  TRACK 53 AUDIO
    TITLE "0:"
    INDEX 01 01:12:48
  TRACK 54 AUDIO
    TITLE "5:cjc058_1193"
    INDEX 01 01:13:06
  TRACK 55 AUDIO
    TITLE "0:"
    INDEX 01 01:16:46
  TRACK 56 AUDIO
    TITLE "4:cjc058_1194"
    INDEX 01 01:17:53
  TRACK 57 AUDIO
    TITLE "0:"
    INDEX 01 01:19:38
  TRACK 58 AUDIO
    TITLE "5:cjc058_1195"
    INDEX 01 01:19:72
  TRACK 59 AUDIO
    TITLE "0:"
    INDEX 01 01:21:21
  TRACK 60 AUDIO
    TITLE "4:cjc058_1196"
    INDEX 01 01:22:29
  TRACK 61 AUDIO
    TITLE "0:"
    INDEX 01 01:24:08
  TRACK 62 AUDIO
    TITLE "5:cjc058_1197"
    INDEX 01 01:24:39
  TRACK 63 AUDIO
    TITLE "0:"
    INDEX 01 01:27:73
  TRACK 64 AUDIO
    TITLE "4:cjc058_1198"
    INDEX 01 01:29:05
  TRACK 65 AUDIO
    TITLE "0:"
    INDEX 01 01:30:50
  TRACK 66 AUDIO
    TITLE "5:cjc058_1199"
    INDEX 01 01:31:08
  TRACK 67 AUDIO
    TITLE "0:"
    INDEX 01 01:34:20
  TRACK 68 AUDIO
    TITLE "4:cjc058_1200"
    INDEX 01 01:35:24
  TRACK 69 AUDIO
    TITLE "0:"
    INDEX 01 01:36:66
  TRACK 70 AUDIO
    TITLE "5:cjc058_1201"
    INDEX 01 01:37:26
  TRACK 71 AUDIO
    TITLE "0:"
    INDEX 01 01:38:69
  TRACK 72 AUDIO
    TITLE "4:cjc058_1202"
    INDEX 01 01:40:03
  TRACK 73 AUDIO
    TITLE "0:"
    INDEX 01 01:41:38
  TRACK 74 AUDIO
    TITLE "5:cjc058_1203"
    INDEX 01 01:41:71
  TRACK 75 AUDIO
    TITLE "0:"
    INDEX 01 01:44:46
  TRACK 76 AUDIO
    TITLE "4:cjc058_1204"
    INDEX 01 01:45:51
  TRACK 77 AUDIO
    TITLE "0:"
    INDEX 01 01:47:37
  TRACK 78 AUDIO
    TITLE "5:cjc058_1205"
    INDEX 01 01:47:70
  TRACK 79 AUDIO
    TITLE "0:"
    INDEX 01 01:50:70
  TRACK 80 AUDIO
    TITLE "4:cjc058_1206"
    INDEX 01 01:52:02
  TRACK 81 AUDIO
    TITLE "0:"
    INDEX 01 01:53:39
  TRACK 82 AUDIO
    TITLE "5:cjc058_1207"
    INDEX 01 01:53:72
  TRACK 83 AUDIO
    TITLE "0:"
    INDEX 01 01:56:37
  TRACK 84 AUDIO
    TITLE "4:cjc058_1208"
    INDEX 01 01:57:45
  TRACK 85 AUDIO
    TITLE "0:"
    INDEX 01 01:58:66
  TRACK 86 AUDIO
    TITLE "5:cjc058_1209"
    INDEX 01 01:59:26
  TRACK 87 AUDIO
    TITLE "0:"
    INDEX 01 02:02:66
  TRACK 88 AUDIO
    TITLE "4:cjc058_1210"
    INDEX 01 02:04:00
  TRACK 89 AUDIO
    TITLE "0:"
    INDEX 01 02:05:44
  TRACK 90 AUDIO
    TITLE "5:cjc058_1211"
    INDEX 01 02:06:03
  TRACK 91 AUDIO
    TITLE "0:"
    INDEX 01 02:08:66
  TRACK 92 AUDIO
    TITLE "4:cjc058_1212"
    INDEX 01 02:09:71
  TRACK 93 AUDIO
    TITLE "0:"
    INDEX 01 02:11:45
  TRACK 94 AUDIO
    TITLE "5:cjc058_1213"
    INDEX 01 02:12:01
  TRACK 95 AUDIO
    TITLE "0:"
    INDEX 01 02:15:15
  TRACK 96 AUDIO
    TITLE "4:cjc058_1214"
    INDEX 01 02:16:23
  TRACK 97 AUDIO
    TITLE "0:"
    INDEX 01 02:18:04
  TRACK 98 AUDIO
    TITLE "5:cjc058_1215"
    INDEX 01 02:18:37
  TRACK 99 AUDIO
    TITLE "0:"
    INDEX 01 02:20:12
  TRACK 100 AUDIO
    TITLE "4:cjc058_1216"
    INDEX 01 02:21:22
  TRACK 101 AUDIO
    TITLE "0:"
    INDEX 01 02:23:13
  TRACK 102 AUDIO
    TITLE "5:cjc058_1217"
    INDEX 01 02:23:48
  TRACK 103 AUDIO
    TITLE "0:"
    INDEX 01 02:27:13
  TRACK 104 AUDIO
    TITLE "4:cjc058_1218"
    INDEX 01 02:28:20
  TRACK 105 AUDIO
    TITLE "0:"
    INDEX 01 02:29:49
  TRACK 106 AUDIO
    TITLE "5:cjc058_1219"
    INDEX 01 02:30:09
  TRACK 107 AUDIO
    TITLE "0:"
    INDEX 01 02:32:53
  TRACK 108 AUDIO
    TITLE "4:cjc058_1220"
    INDEX 01 02:33:58
  TRACK 109 AUDIO
    TITLE "0:"
    INDEX 01 02:35:39
  TRACK 110 AUDIO
    TITLE "5:cjc058_1221"
    INDEX 01 02:35:73
  TRACK 111 AUDIO
    TITLE "0:"
    INDEX 01 02:37:64
  TRACK 112 AUDIO
    TITLE "4:cjc058_1222"
    INDEX 01 02:38:71
  TRACK 113 AUDIO
    TITLE "0:"
    INDEX 01 02:40:27
  TRACK 114 AUDIO
    TITLE "5:cjc058_1223"
    INDEX 01 02:40:54
  TRACK 115 AUDIO
    TITLE "0:"
    INDEX 01 02:43:55
  TRACK 116 AUDIO
    TITLE "4:cjc058_1224"
    INDEX 01 02:44:66
  TRACK 117 AUDIO
    TITLE "0:"
    INDEX 01 02:46:18
  TRACK 118 AUDIO
    TITLE "5:cjc058_1225"
    INDEX 01 02:46:53
  TRACK 119 AUDIO
    TITLE "0:"
    INDEX 01 02:48:07
  TRACK 120 AUDIO
    TITLE "4:cjc058_1226"
    INDEX 01 02:49:16
  TRACK 121 AUDIO
    TITLE "0:"
    INDEX 01 02:50:51
  TRACK 122 AUDIO
    TITLE "5:cjc058_1227"
    INDEX 01 02:51:11
  TRACK 123 AUDIO
    TITLE "0:"
    INDEX 01 02:53:73
  TRACK 124 AUDIO
    TITLE "4:cjc058_1228"
    INDEX 01 02:55:07
  TRACK 125 AUDIO
    TITLE "0:"
    INDEX 01 02:56:30
  TRACK 126 AUDIO
    TITLE "5:cjc058_1229"
    INDEX 01 02:56:61
  TRACK 127 AUDIO
    TITLE "0:"
    INDEX 01 02:58:21
  TRACK 128 AUDIO
    TITLE "4:cjc058_1230"
    INDEX 01 02:59:28
  TRACK 129 AUDIO
    TITLE "0:"
    INDEX 01 03:01:11
  TRACK 130 AUDIO
    TITLE "5:cjc058_1231"
    INDEX 01 03:01:41
  TRACK 131 AUDIO
    TITLE "0:"
    INDEX 01 03:04:24
  TRACK 132 AUDIO
    TITLE "4:cjc058_1232"
    INDEX 01 03:05:29
  TRACK 133 AUDIO
    TITLE "0:"
    INDEX 01 03:06:50
  TRACK 134 AUDIO
    TITLE "5:cjc058_1233"
    INDEX 01 03:07:08
  TRACK 135 AUDIO
    TITLE "0:"
    INDEX 01 03:08:27
  TRACK 136 AUDIO
    TITLE "4:cjc058_1234"
    INDEX 01 03:09:36
  TRACK 137 AUDIO
    TITLE "0:"
    INDEX 01 03:11:08
  TRACK 138 AUDIO
    TITLE "5:cjc058_1235"
    INDEX 01 03:11:39
  TRACK 139 AUDIO
    TITLE "0:"
    INDEX 01 03:13:66
  TRACK 140 AUDIO
    TITLE "4:cjc058_1236"
    INDEX 01 03:14:69
  TRACK 141 AUDIO
    TITLE "0:"
    INDEX 01 03:16:68
  TRACK 142 AUDIO
    TITLE "5:cjc058_1237"
    INDEX 01 03:17:26
  TRACK 143 AUDIO
    TITLE "0:"
    INDEX 01 03:18:61
  TRACK 144 AUDIO
    TITLE "4:cjc058_1238"
    INDEX 01 03:19:68
  TRACK 145 AUDIO
    TITLE "0:"
    INDEX 01 03:21:20
  TRACK 146 AUDIO
    TITLE "5:cjc058_1239"
    INDEX 01 03:21:53
  TRACK 147 AUDIO
    TITLE "0:"
    INDEX 01 03:24:09
  TRACK 148 AUDIO
    TITLE "4:cjc058_1240"
    INDEX 01 03:25:18
  TRACK 149 AUDIO
    TITLE "0:"
    INDEX 01 03:26:33
  TRACK 150 AUDIO
    TITLE "5:cjc058_1241"
    INDEX 01 03:26:64
  TRACK 151 AUDIO
    TITLE "0:"
    INDEX 01 03:29:37
  TRACK 152 AUDIO
    TITLE "4:cjc058_1242"
    INDEX 01 03:30:44
  TRACK 153 AUDIO
    TITLE "0:"
    INDEX 01 03:32:20
  TRACK 154 AUDIO
    TITLE "5:cjc058_1243"
    INDEX 01 03:32:51
  TRACK 155 AUDIO
    TITLE "0:"
    INDEX 01 03:35:42
  TRACK 156 AUDIO
    TITLE "4:cjc058_1244"
    INDEX 01 03:36:51
  TRACK 157 AUDIO
    TITLE "0:"
    INDEX 01 03:37:74
  TRACK 158 AUDIO
    TITLE "5:cjc058_1245"
    INDEX 01 03:38:30
  TRACK 159 AUDIO
    TITLE "0:"
    INDEX 01 03:40:41
  TRACK 160 AUDIO
    TITLE "4:cjc058_1246"
    INDEX 01 03:41:44
  TRACK 161 AUDIO
    TITLE "0:"
    INDEX 01 03:43:00
  TRACK 162 AUDIO
    TITLE "5:cjc058_1247"
    INDEX 01 03:43:33
  TRACK 163 AUDIO
    TITLE "0:"
    INDEX 01 03:45:32
  TRACK 164 AUDIO
    TITLE "4:cjc058_1248"
    INDEX 01 03:46:40
  TRACK 165 AUDIO
    TITLE "0:"
    INDEX 01 03:48:19
  TRACK 166 AUDIO
    TITLE "5:cjc058_1249"
    INDEX 01 03:48:52
  TRACK 167 AUDIO
    TITLE "0:"
    INDEX 01 03:50:16
  TRACK 168 AUDIO
    TITLE "4:cjc058_1250"
    INDEX 01 03:51:25
  TRACK 169 AUDIO
    TITLE "0:"
    INDEX 01 03:52:62
  TRACK 170 AUDIO
    TITLE "5:cjc058_1251"
    INDEX 01 03:53:18
  TRACK 171 AUDIO
    TITLE "0:"
    INDEX 01 03:55:54
  TRACK 172 AUDIO
    TITLE "4:cjc058_1252"
    INDEX 01 03:56:60
  TRACK 173 AUDIO
    TITLE "0:"
    INDEX 01 03:57:69
  TRACK 174 AUDIO
    TITLE "5:cjc058_1253"
    INDEX 01 03:58:29
  TRACK 175 AUDIO
    TITLE "0:"
    INDEX 01 03:59:64
  TRACK 176 AUDIO
    TITLE "4:cjc058_1254"
    INDEX 01 04:00:73
  TRACK 177 AUDIO
    TITLE "0:"
    INDEX 01 04:02:37
  TRACK 178 AUDIO
    TITLE "5:cjc058_1255"
    INDEX 01 04:02:70
  TRACK 179 AUDIO
    TITLE "0:"
    INDEX 01 04:03:71
  TRACK 180 AUDIO
    TITLE "4:cjc058_1256"
    INDEX 01 04:05:02
  TRACK 181 AUDIO
    TITLE "0:"
    INDEX 01 04:06:29
  TRACK 182 AUDIO
    TITLE "5:cjc058_1257"
    INDEX 01 04:06:62
  TRACK 183 AUDIO
    TITLE "0:"
    INDEX 01 04:07:69
  TRACK 184 AUDIO
    TITLE "4:cjc058_1258"
    INDEX 01 04:09:03
  TRACK 185 AUDIO
    TITLE "0:"
    INDEX 01 04:10:38
  TRACK 186 AUDIO
    TITLE "5:cjc058_1259"
    INDEX 01 04:11:00
  TRACK 187 AUDIO
    TITLE "0:"
    INDEX 01 04:12:29
  TRACK 188 AUDIO
    TITLE "4:cjc058_1260"
    INDEX 01 04:13:36
  TRACK 189 AUDIO
    TITLE "0:"
    INDEX 01 04:14:63
  TRACK 190 AUDIO
    TITLE "5:cjc058_1261"
    INDEX 01 04:15:20
  TRACK 191 AUDIO
    TITLE "0:"
    INDEX 01 04:17:62
  TRACK 192 AUDIO
    TITLE "4:cjc058_1262"
    INDEX 01 04:18:71
  TRACK 193 AUDIO
    TITLE "0:"
    INDEX 01 04:20:44
  TRACK 194 AUDIO
    TITLE "5:cjc058_1263"
    INDEX 01 04:21:01
  TRACK 195 AUDIO
    TITLE "0:"
    INDEX 01 04:22:29
  TRACK 196 AUDIO
    TITLE "4:cjc058_1264"
    INDEX 01 04:23:37
  TRACK 197 AUDIO
    TITLE "0:"
    INDEX 01 04:25:16
  TRACK 198 AUDIO
    TITLE "5:cjc058_1265"
    INDEX 01 04:25:49
  TRACK 199 AUDIO
    TITLE "0:"
    INDEX 01 04:27:11
  TRACK 200 AUDIO
    TITLE "4:cjc058_1266"
    INDEX 01 04:28:14
  TRACK 201 AUDIO
    TITLE "0:"
    INDEX 01 04:29:63
  TRACK 202 AUDIO
    TITLE "5:cjc058_1267"
    INDEX 01 04:30:21
  TRACK 203 AUDIO
    TITLE "0:"
    INDEX 01 04:34:25
  TRACK 204 AUDIO
    TITLE "4:cjc058_1268"
    INDEX 01 04:35:36
  TRACK 205 AUDIO
    TITLE "0:"
    INDEX 01 04:37:04
  TRACK 206 AUDIO
    TITLE "5:cjc058_1269"
    INDEX 01 04:37:35
  TRACK 207 AUDIO
    TITLE "0:"
    INDEX 01 04:39:20
  TRACK 208 AUDIO
    TITLE "4:cjc058_1270"
    INDEX 01 04:40:27
  TRACK 209 AUDIO
    TITLE "0:"
    INDEX 01 04:41:50
  TRACK 210 AUDIO
    TITLE "5:cjc058_1271"
    INDEX 01 04:42:07
  TRACK 211 AUDIO
    TITLE "0:"
    INDEX 01 04:44:25
  TRACK 212 AUDIO
    TITLE "4:cjc058_1272"
    INDEX 01 04:45:31
  TRACK 213 AUDIO
    TITLE "0:"
    INDEX 01 04:46:73
  TRACK 214 AUDIO
    TITLE "5:cjc058_1273"
    INDEX 01 04:47:31
  TRACK 215 AUDIO
    TITLE "0:"
    INDEX 01 04:48:74
  TRACK 216 AUDIO
    TITLE "4:cjc058_1274"
    INDEX 01 04:50:02
  TRACK 217 AUDIO
    TITLE "0:"
    INDEX 01 04:51:55
  TRACK 218 AUDIO
    TITLE "5:cjc058_1275"
    INDEX 01 04:52:13
  TRACK 219 AUDIO
    TITLE "0:"
    INDEX 01 04:53:40
  TRACK 220 AUDIO
    TITLE "4:cjc058_1276"
    INDEX 01 04:54:51
  TRACK 221 AUDIO
    TITLE "0:"
    INDEX 01 04:56:21
  TRACK 222 AUDIO
    TITLE "5:cjc058_1277"
    INDEX 01 04:56:54
  TRACK 223 AUDIO
    TITLE "0:"
    INDEX 01 04:59:19
  TRACK 224 AUDIO
    TITLE "4:cjc058_1278"
    INDEX 01 05:00:28
  TRACK 225 AUDIO
    TITLE "0:"
    INDEX 01 05:01:73
  TRACK 226 AUDIO
    TITLE "5:cjc058_1279"
    INDEX 01 05:02:31
  TRACK 227 AUDIO
    TITLE "0:"
    INDEX 01 05:05:35
  TRACK 228 AUDIO
    TITLE "4:cjc058_1280"
    INDEX 01 05:06:44
  TRACK 229 AUDIO
    TITLE "0:"
    INDEX 01 05:08:57
  TRACK 230 AUDIO
    TITLE "5:cjc058_1281"
    INDEX 01 05:09:15
  TRACK 231 AUDIO
    TITLE "0:"
    INDEX 01 05:11:32
  TRACK 232 AUDIO
    TITLE "4:cjc058_1282"
    INDEX 01 05:12:41
  TRACK 233 AUDIO
    TITLE "0:"
    INDEX 01 05:13:64
  TRACK 234 AUDIO
    TITLE "5:cjc058_1283"
    INDEX 01 05:14:20
  TRACK 235 AUDIO
    TITLE "0:"
    INDEX 01 05:16:17
  TRACK 236 AUDIO
    TITLE "4:cjc058_1284"
    INDEX 01 05:17:23
  TRACK 237 AUDIO
    TITLE "0:"
    INDEX 01 05:18:52
  TRACK 238 AUDIO
    TITLE "5:cjc058_1285"
    INDEX 01 05:19:10
  TRACK 239 AUDIO
    TITLE "0:"
    INDEX 01 05:22:24
  TRACK 240 AUDIO
    TITLE "4:cjc058_1286"
    INDEX 01 05:23:31
  TRACK 241 AUDIO
    TITLE "0:"
    INDEX 01 05:24:62
  TRACK 242 AUDIO
    TITLE "5:cjc058_1287"
    INDEX 01 05:25:20
  TRACK 243 AUDIO
    TITLE "0:"
    INDEX 01 05:26:59
  TRACK 244 AUDIO
    TITLE "4:cjc058_1288"
    INDEX 01 05:27:68
  TRACK 245 AUDIO
    TITLE "0:"
    INDEX 01 05:29:44
  TRACK 246 AUDIO
    TITLE "5:cjc058_1289"
    INDEX 01 05:30:00
  TRACK 247 AUDIO
    TITLE "0:"
    INDEX 01 05:31:54
  TRACK 248 AUDIO
    TITLE "4:cjc058_1290"
    INDEX 01 05:32:63
  TRACK 249 AUDIO
    TITLE "0:"
    INDEX 01 05:34:49
  TRACK 250 AUDIO
    TITLE "5:cjc058_1291"
    INDEX 01 05:35:03
  TRACK 251 AUDIO
    TITLE "0:"
    INDEX 01 05:36:55
  TRACK 252 AUDIO
    TITLE "4:cjc058_1292"
    INDEX 01 05:37:61
  TRACK 253 AUDIO
    TITLE "0:"
    INDEX 01 05:39:62
  TRACK 254 AUDIO
    TITLE "5:cjc058_1293"
    INDEX 01 05:40:20
  TRACK 255 AUDIO
    TITLE "0:"
    INDEX 01 05:41:66
  TRACK 256 AUDIO
    TITLE "4:cjc058_1294"
    INDEX 01 05:42:74
  TRACK 257 AUDIO
    TITLE "0:"
    INDEX 01 05:44:37
  TRACK 258 AUDIO
    TITLE "5:cjc058_1295"
    INDEX 01 05:44:71
  TRACK 259 AUDIO
    TITLE "0:"
    INDEX 01 05:46:46
  TRACK 260 AUDIO
    TITLE "4:cjc058_1296"
    INDEX 01 05:47:51
  TRACK 261 AUDIO
    TITLE "0:"
    INDEX 01 05:49:27
  TRACK 262 AUDIO
    TITLE "5:cjc058_1297"
    INDEX 01 05:49:62
  TRACK 263 AUDIO
    TITLE "0:"
    INDEX 01 05:52:54
  TRACK 264 AUDIO
    TITLE "4:cjc058_1298"
    INDEX 01 05:53:64
  TRACK 265 AUDIO
    TITLE "0:"
    INDEX 01 05:56:15
  TRACK 266 AUDIO
    TITLE "5:cjc058_1299"
    INDEX 01 05:56:46
  TRACK 267 AUDIO
    TITLE "0:"
    INDEX 01 05:58:43
  TRACK 268 AUDIO
    TITLE "4:cjc058_1300"
    INDEX 01 05:59:49
  TRACK 269 AUDIO
    TITLE "0:"
    INDEX 01 06:01:14
  TRACK 270 AUDIO
    TITLE "5:cjc058_1301"
    INDEX 01 06:01:47
  TRACK 271 AUDIO
    TITLE "0:"
    INDEX 01 06:03:23
  TRACK 272 AUDIO
    TITLE "4:cjc058_1302"
    INDEX 01 06:04:34
  TRACK 273 AUDIO
    TITLE "0:"
    INDEX 01 06:06:02
  TRACK 274 AUDIO
    TITLE "5:cjc058_1303"
    INDEX 01 06:06:35
  TRACK 275 AUDIO
    TITLE "0:"
    INDEX 01 06:08:06
